PathFileType	4	(X/Y/Z)	path1_06_0-578.trc
DataRate	CameraRate	NumFrames	NumMarkers	Units	OrigDataRate	OrigDataStartFrame	OrigNumFrames
30	30	8	22	m	30	144	578
Frame#	Time	Hip			RHip			RKnee			RAnkle			RBigToe			RSmallToe			RHeel			LHip			LKnee			LAnkle			LBigToe			LSmallToe			LHeel			Neck			Head			Nose			RShoulder			RElbow			RWrist			LShoulder			LElbow			LWrist		
		X1	Y1	Z1	X2	Y2	Z2	X3	Y3	Z3	X4	Y4	Z4	X5	Y5	Z5	X6	Y6	Z6	X7	Y7	Z7	X8	Y8	Z8	X9	Y9	Z9	X10	Y10	Z10	X11	Y11	Z11	X12	Y12	Z12	X13	Y13	Z13	X14	Y14	Z14	X15	Y15	Z15	X16	Y16	Z16	X17	Y17	Z17	X18	Y18	Z18	X19	Y19	Z19	X20	Y20	Z20	X21	Y21	Z21	X22	Y22	Z22
145	4.833333333333333	2.597413247717342	0.8342792088469652	0.7539348070670673	2.6027946169734726	0.7965393050244359	0.6735562330803019	2.575940724538402	0.47213709679673355	0.6549499244145088	2.63762660073639	0.10288840315582692	0.6671833839458138	2.456137105229092	0.02556045897311236	0.641282108990892	2.49819926962246	0.02238746777749928	0.587027407262393	2.7029869285206103	0.022435022436392123	0.6860750103299005	2.590333564863147	0.7949251646380495	0.8340461030970936	2.5943687610390453	0.44400145036658145	0.840825830393871	2.6384700830038876	0.09891334121607023	0.8375843973928403	2.480303008690952	0.010458850225970807	0.8668070111330084	2.520206277131302	0.017664349140339118	0.9160629892012346	2.6886659695063706	0.028740645029022877	0.8319353796705495	2.5530313615420788	1.4686717846027566	0.7658892704734491	2.5259797624178413	1.711346368778524	0.7222631878319697	2.4211325498989087	1.609049734196121	0.7400452473328722	2.6025847228651187	1.3674357207117802	0.5933346250087133	2.5981753719935585	1.0764787140841339	0.5427424904795477	2.5700581109918317	0.8437493105801639	0.5423482837789698	2.5463918600298463	1.3428391205872363	0.9349521344388234	2.6091675635300784	1.0670780035815866	0.9598876375547071	2.59517653435918	0.8365302212019645	0.9614505006647129
146	4.866666666666666	2.596598047213113	0.8340503352091577	0.7542340134456276	2.603602911616476	0.7947729146083137	0.6753585097960795	2.5760383766088726	0.47159527889170744	0.6548441228434814	2.6381513355573945	0.10222213611218614	0.6680174109294388	2.4557367544819604	0.025713860763847463	0.6410440334869693	2.497840883495148	0.022479279217034364	0.5867046786484292	2.70311406520919	0.021473324046678573	0.683336284866664	2.5896067184972478	0.7938814932724478	0.8357078548839546	2.59396234223201	0.4426212344133072	0.8447793732419838	2.6370923461916087	0.09990822503897451	0.8358807346822836	2.479801815491827	0.011083252641050253	0.8668944611301617	2.5188594711911434	0.018462948388843294	0.9163862720830174	2.688835432831334	0.02908112929693946	0.8318006718391183	2.5530856018629455	1.4692976595208314	0.7667028855020093	2.5260788275827646	1.7128575779027952	0.7144995536652863	2.42052687932955	1.609399037981785	0.740944989842258	2.6028713150050575	1.3673630454973869	0.5940569806608033	2.5978242459879954	1.0767595454407894	0.542972688953645	2.5698392936069703	0.8439545010287905	0.5422724199450145	2.546124743349503	1.3428023560954248	0.9351774618517583	2.6086789215239907	1.0673597260034697	0.960191758079857	2.5946066637121605	0.8367141048457016	0.9610614925386399
147	4.9	2.596081436611737	0.8336146563257496	0.7544012898993501	2.604092622489379	0.7936467494050381	0.6765879403019873	2.576175743249182	0.4710634474054861	0.6548934525668916	2.6375135418095126	0.10268688831922396	0.6673455164984707	2.4550468807537174	0.026066424739726035	0.6405373231857563	2.497016024889387	0.022690992919873195	0.5861311364198353	2.7030631245901438	0.020604761634059297	0.6808678021829545	2.589069275715928	0.7932111563511084	0.8371313615602538	2.5936252944820706	0.4413618970558889	0.8466352460865036	2.63658743529475	0.10016934300547559	0.8348864428016635	2.479335638449926	0.011811066145906423	0.8673389915757725	2.5169765661794736	0.01932104152270439	0.9162927680964648	2.688956187220457	0.029313587156766227	0.8316100474535816	2.5523971033107316	1.4692538733667897	0.7669537771456657	2.5254897949213575	1.7136876779159662	0.7107632444269114	2.42001570446198	1.6096641431645613	0.7421307975560831	2.6031254067534735	1.3672310161894765	0.5947394577057642	2.5973838238323905	1.0770112576636934	0.5431128052264481	2.5694610493961263	0.8441540576205507	0.5422665546433996	2.5456705901024534	1.3428403093782812	0.9352160017022988	2.608262144248099	1.0677764311856293	0.960450097163667	2.5940513036560113	0.8370028279235315	0.9608266545400987
148	4.933333333333334	2.595823757681731	0.8330813966831657	0.7544322446520215	2.6041943862886914	0.7932931063269355	0.6772638206223858	2.5762729736467267	0.4706008667663889	0.6550328469197312	2.6362447511498934	0.10399978362708392	0.6656071253558333	2.454348850966405	0.02654242260808169	0.6399374526933372	2.496130131838661	0.022973000911181735	0.585493441951426	2.7028258561642966	0.02006519478985641	0.6792558723864038	2.5886887988003786	0.7931648348899097	0.8382294323429904	2.5928685946280408	0.440979305849019	0.8465584147696347	2.6373452860436575	0.09956226982282279	0.8347723588376336	2.479051979592676	0.01207647662396211	0.8677184135104069	2.5145031135226223	0.020242503224196087	0.9157845715853714	2.689406705243578	0.029374560096285723	0.8316462722915237	2.5511901910602446	1.4685870753430952	0.766598128066233	2.5237554517586935	1.7138218571495238	0.7101404875510972	2.4194786059554145	1.6096841125365808	0.7428442965123297	2.603259107892848	1.3670120678041906	0.5951843552252246	2.597007516103342	1.0771114929838443	0.5430999278491497	2.56905552655356	0.8441256329045196	0.5423613482440048	2.545281402342761	1.3428928226675376	0.9350951726457924	2.608006530716563	1.0682268653520044	0.960677045584708	2.593590853314223	0.8373516910729668	0.9607582145749364
149	4.966666666666667	2.595706265453018	0.8325778533386199	0.754365637906257	2.6039427814931733	0.7936149178002944	0.6775560800130361	2.5762432913029896	0.4702548935465021	0.6551479808234777	2.635095287551557	0.1055307165093281	0.663711202158912	2.4539606623554557	0.02699888795340632	0.6394415020104971	2.4956380247984296	0.023220708836937692	0.585022122503747	2.7024703497557887	0.01986415066761716	0.678575190000558	2.588359925878648	0.793759560638044	0.8389908455310197	2.5915767436735573	0.44167976499559386	0.845717760918643	2.639294994193038	0.0982838182949468	0.83566498489832	2.478990240659172	0.01153655204038002	0.8677471124515392	2.511478279811067	0.021272049911399703	0.9149937245780115	2.69049919564045	0.029206642865322922	0.8321876421740728	2.549723713018107	1.4674108080949706	0.7657683651903416	2.5206443547390185	1.7132695778397802	0.7111730494341565	2.4188167339438893	1.60937666273196	0.7424468996777361	2.603238845465794	1.366737583261139	0.5953190658847516	2.59683185824801	1.0769657434681477	0.5429254800904066	2.568759492092335	0.8437135881225879	0.5425769294255198	2.5451832399347776	1.3429426307306234	0.9349101580074991	2.6078988002219963	1.0685982009909132	0.9608556555829179	2.5932690405246426	0.8377187696682692	0.9607727894264539
150	5.0	2.5956199993063978	0.8322150121412658	0.7542330289581316	2.6034859294069674	0.7942794978340636	0.6776483847673876	2.5760840112411736	0.47009679614129163	0.6551562024570243	2.6343930053231417	0.106842103940537	0.6622567844983283	2.4539886457774664	0.027308337162508037	0.6391517472048039	2.495708235897429	0.023330573372831297	0.5848476729629912	2.702103159840697	0.019881778557552906	0.6785572258927137	2.5880273469942634	0.7947051384194349	0.839403923053009	2.589669610138894	0.443447305956373	0.8449023335551303	2.6417418549373815	0.09693839805345962	0.8375562930676648	2.479082624195235	0.010278146176448606	0.8673935586220438	2.5084116596283113	0.022330323655113032	0.9141415315813798	2.6920944729960494	0.02886243738884313	0.833244180696223	2.5483803880693268	1.4660822580768478	0.7648182361287901	2.5165176118792965	1.7120776944981018	0.7127639541287587	2.4180636007203957	1.6088012835593173	0.7410520533222568	2.6030933410652484	1.3664683264086954	0.5952138996616696	2.596840116738648	1.0765849006728172	0.5426447530358582	2.568623620652747	0.8429523624745971	0.5429227986677223	2.5453722440979467	1.3430228509760185	0.9347467314814218	2.607867721131006	1.0688358765609316	0.9609700917047042	2.593077338854657	0.8380719108216839	0.9607727802432169
151	5.033333333333333	2.5954955408163913	0.8320629616800961	0.7540278401455469	2.6029669745089583	0.7948263651638623	0.6776128396064902	2.5758692297302166	0.4701479443537314	0.655051235394537	2.63408295639136	0.10775363600898287	0.6613965403448692	2.454305378125995	0.027396431570874395	0.6390517939284553	2.4962141914992273	0.023243704619705232	0.584957695881572	2.701799121965521	0.019994405050221126	0.6788425988158339	2.587734599964541	0.795508630411398	0.8394167106066164	2.587490002093917	0.44578425322811077	0.8442231860444611	2.6437833636079513	0.09613461147924852	0.8399689962457084	2.4791787036381367	0.008820343721168493	0.8668382270245888	2.50643743298468	0.023079599555746247	0.913533245943343	2.693606577515058	0.028508950801737862	0.8343799161794171	2.5476119097885372	1.4651616208977551	0.7642131561323829	2.5125769757768737	1.7105870630703142	0.7139231467279075	2.417322998281489	1.6081293173326505	0.7393724295237201	2.6028856651144303	1.3662503321528945	0.5949986937917248	2.596886912052759	1.0760825738328526	0.5423305301636144	2.5686273596704923	0.8420844975987001	0.5433845522728642	2.5456637183814426	1.3431253302542145	0.9346467775957243	2.607845706911668	1.0689548052305828	0.9610216340060025	2.5929721391854064	0.8383782733768995	0.9607185625379562
152	5.066666666666666	2.5953160226952354	0.8321269253528975	0.7537230602802566	2.602443260514741	0.7949475439411223	0.6774149848173204	2.575684698595732	0.47034071895374174	0.6548960514885418	2.634023188279096	0.10819784550770328	0.6610372055271313	2.45469536783964	0.02724839828741219	0.6390775336081588	2.496905960497955	0.0229613532229744	0.5852514934744345	2.7015774153757937	0.0201177608316539	0.6791271918493461	2.587564253386665	0.7957938099096424	0.8390018312417407	2.5858002617292537	0.4477640994429963	0.843741856876095	2.644799783565331	0.0961018625251555	0.8418708792135156	2.4791322778949616	0.00781490989997352	0.8662823299424866	2.5065129206528223	0.02317156139132029	0.9134126667544492	2.6942990723290268	0.028348516365360562	0.8348586201793686	2.547528362169843	1.4649426272259716	0.7641512278585463	2.510497132172191	1.7095623714106423	0.7135658246319656	2.4166814029507337	1.6075457693127841	0.7381639061955949	2.602671851587142	1.3660964081664664	0.594787157316133	2.59685320560285	1.0756140467484114	0.5420312375977191	2.5687147127653245	0.8414046790468814	0.5439083519589439	2.545852274655764	1.343188624217344	0.934621800750027	2.607777873822196	1.0689825756505014	0.9610137903508955	2.5929162230428404	0.8386096284243764	0.9606451426487487
